<svg width="147" height="61" viewBox="0 0 147 61" fill="none" xmlns="http://www.w3.org/2000/svg">
<path d="M29.96 33.688C29.96 34.456 29.5973 35.416 28.872 36.568C28.1893 37.6773 27.2507 38.7653 26.056 39.832C24.8613 40.8987 23.4747 41.816 21.896 42.584C20.3173 43.3093 18.6747 43.672 16.968 43.672C16.2 43.672 15.3893 43.544 14.536 43.288C13.6827 43.032 12.8507 42.6693 12.04 42.2C11.2293 41.688 10.504 41.0907 9.864 40.408C9.224 39.6827 8.75467 38.872 8.456 37.976C8.2 38.232 7.88 38.6587 7.496 39.256C7.15467 39.8533 6.77067 40.472 6.344 41.112C5.91733 41.7093 5.448 42.2427 4.936 42.712C4.424 43.1387 3.89067 43.352 3.336 43.352C2.78133 43.352 2.312 43.0747 1.928 42.52C1.58667 41.9227 1.30933 41.2827 1.096 40.6C0.882667 39.8747 0.733334 39.192 0.648 38.552C0.562667 37.912 0.52 37.5493 0.52 37.464C0.52 36.952 0.669334 35.992 0.968 34.584C1.26667 33.1333 1.71467 31.64 2.312 30.104C2.90933 28.568 3.656 27.2027 4.552 26.008C5.49067 24.8133 6.57867 24.216 7.816 24.216C8.28533 24.216 8.584 24.4293 8.712 24.856C8.88267 25.24 8.968 25.624 8.968 26.008V27.928C9.18133 28.0987 9.39467 28.2267 9.608 28.312C9.864 28.3547 10.0773 28.44 10.248 28.568C10.4613 28.6533 10.6107 28.8027 10.696 29.016C10.824 29.2293 10.888 29.5707 10.888 30.04C10.888 30.3387 10.8667 30.616 10.824 30.872C10.7813 31.0853 10.76 31.2987 10.76 31.512C10.76 32.6213 10.8453 33.7093 11.016 34.776C11.1867 35.8427 11.528 36.8027 12.04 37.656C12.552 38.4667 13.256 39.1493 14.152 39.704C15.048 40.216 16.2427 40.472 17.736 40.472C19.6133 40.472 21.192 40.088 22.472 39.32C23.7947 38.5093 24.8827 37.6347 25.736 36.696C26.632 35.7147 27.336 34.84 27.848 34.072C28.36 33.2613 28.7867 32.856 29.128 32.856C29.6827 32.856 29.96 33.1333 29.96 33.688ZM7.496 30.872C7.496 30.7013 7.45333 30.552 7.368 30.424C7.28267 30.2533 7.24 30.104 7.24 29.976C7.24 29.8053 7.28267 29.656 7.368 29.528C7.45333 29.4 7.496 29.2293 7.496 29.016C7.496 28.888 7.45333 28.8027 7.368 28.76C7.28267 28.6747 7.24 28.5893 7.24 28.504C6.856 28.5893 6.45067 28.952 6.024 29.592C5.64 30.232 5.256 30.9787 4.872 31.832C4.53067 32.6853 4.25333 33.56 4.04 34.456C3.82667 35.3093 3.72 36.0133 3.72 36.568C3.72 36.8667 3.80533 37.3573 3.976 38.04C4.14667 38.7227 4.33867 39.1707 4.552 39.384C5.27733 37.8907 5.93867 36.44 6.536 35.032C7.176 33.624 7.496 32.2373 7.496 30.872ZM51.2915 28.504C51.2915 29.6133 50.9715 30.68 50.3315 31.704C49.7342 32.728 48.9875 33.688 48.0915 34.584C47.1955 35.4373 46.2142 36.248 45.1475 37.016C44.0808 37.7413 43.0995 38.3813 42.2035 38.936C41.3502 39.5333 40.6462 40.024 40.0915 40.408C39.5368 40.792 39.2595 41.0907 39.2595 41.304C39.2595 41.8587 39.3235 42.648 39.4515 43.672C39.5795 44.6533 39.7288 45.7413 39.8995 46.936C40.1128 48.088 40.3048 49.2827 40.4755 50.52C40.6888 51.7573 40.8382 52.888 40.9235 53.912C40.9235 53.9547 40.9448 54.1467 40.9875 54.488C41.0728 54.8293 41.1582 55.2133 41.2435 55.64C41.3715 56.0667 41.4568 56.4507 41.4995 56.792C41.5848 57.176 41.6275 57.4107 41.6275 57.496C41.6275 57.7947 41.6062 58.1147 41.5635 58.456C41.5635 58.84 41.4995 59.1813 41.3715 59.48C41.2862 59.8213 41.1368 60.0987 40.9235 60.312C40.7102 60.5253 40.4328 60.632 40.0915 60.632C39.6222 60.632 39.2808 60.4187 39.0675 59.992C38.8542 59.608 38.7475 59.224 38.7475 58.84C38.7475 58.7547 38.7475 58.6693 38.7475 58.584C38.7902 58.4987 38.8115 58.392 38.8115 58.264C38.8115 57.7947 38.6408 56.536 38.2995 54.488C37.9582 52.44 37.5742 49.9867 37.1475 47.128C36.7208 44.312 36.3368 41.2827 35.9955 38.04C35.6542 34.7547 35.4835 31.6613 35.4835 28.76C35.4835 28.5467 35.5048 28.312 35.5475 28.056C35.5902 27.7573 35.6115 27.5013 35.6115 27.288C35.1848 27.3307 34.5448 27.5227 33.6915 27.864C32.8808 28.2053 32.0702 28.632 31.2595 29.144C30.4488 29.6133 29.7235 30.1253 29.0835 30.68C28.4862 31.192 28.1875 31.6613 28.1875 32.088H27.7395C27.6115 32.088 27.4622 32.0027 27.2915 31.832C27.0782 31.6613 26.9075 31.4693 26.7795 31.256C26.6088 31.0427 26.4595 30.8293 26.3315 30.616C26.2035 30.4027 26.1395 30.2533 26.1395 30.168C26.1395 29.272 26.6728 28.44 27.7395 27.672C28.8062 26.8613 30.1288 26.1573 31.7075 25.56C33.3288 24.92 35.0995 24.4293 37.0195 24.088C38.9395 23.704 40.7528 23.512 42.4595 23.512C44.1235 23.512 45.5102 23.704 46.6195 24.088C47.7715 24.472 48.6888 24.9413 49.3715 25.496C50.0542 26.008 50.5448 26.5413 50.8435 27.096C51.1422 27.6507 51.2915 28.12 51.2915 28.504ZM48.1555 28.312C48.1555 27.8853 47.6222 27.4587 46.5555 27.032C45.4888 26.5627 44.2302 26.328 42.7795 26.328C41.4995 26.328 40.5608 26.3707 39.9635 26.456C39.3662 26.5413 38.9608 26.6267 38.7475 26.712C38.6622 27.3947 38.5982 28.2053 38.5555 29.144C38.5128 30.0827 38.4915 31.0427 38.4915 32.024C38.4915 33.048 38.5128 34.0507 38.5555 35.032C38.6408 35.9707 38.7262 36.76 38.8115 37.4C39.4088 37.016 40.2195 36.504 41.2435 35.864C42.3102 35.1813 43.3555 34.4347 44.3795 33.624C45.4035 32.7707 46.2782 31.896 47.0035 31C47.7715 30.0613 48.1555 29.1653 48.1555 28.312ZM75.4165 28.504C75.4165 29.6133 75.0965 30.68 74.4565 31.704C73.8592 32.728 73.1125 33.688 72.2165 34.584C71.3205 35.4373 70.3392 36.248 69.2725 37.016C68.2058 37.7413 67.2245 38.3813 66.3285 38.936C65.4752 39.5333 64.7712 40.024 64.2165 40.408C63.6618 40.792 63.3845 41.0907 63.3845 41.304C63.3845 41.8587 63.4485 42.648 63.5765 43.672C63.7045 44.6533 63.8538 45.7413 64.0245 46.936C64.2378 48.088 64.4298 49.2827 64.6005 50.52C64.8138 51.7573 64.9632 52.888 65.0485 53.912C65.0485 53.9547 65.0698 54.1467 65.1125 54.488C65.1978 54.8293 65.2832 55.2133 65.3685 55.64C65.4965 56.0667 65.5818 56.4507 65.6245 56.792C65.7098 57.176 65.7525 57.4107 65.7525 57.496C65.7525 57.7947 65.7312 58.1147 65.6885 58.456C65.6885 58.84 65.6245 59.1813 65.4965 59.48C65.4112 59.8213 65.2618 60.0987 65.0485 60.312C64.8352 60.5253 64.5578 60.632 64.2165 60.632C63.7472 60.632 63.4058 60.4187 63.1925 59.992C62.9792 59.608 62.8725 59.224 62.8725 58.84C62.8725 58.7547 62.8725 58.6693 62.8725 58.584C62.9152 58.4987 62.9365 58.392 62.9365 58.264C62.9365 57.7947 62.7658 56.536 62.4245 54.488C62.0832 52.44 61.6992 49.9867 61.2725 47.128C60.8458 44.312 60.4618 41.2827 60.1205 38.04C59.7792 34.7547 59.6085 31.6613 59.6085 28.76C59.6085 28.5467 59.6298 28.312 59.6725 28.056C59.7152 27.7573 59.7365 27.5013 59.7365 27.288C59.3098 27.3307 58.6698 27.5227 57.8165 27.864C57.0058 28.2053 56.1952 28.632 55.3845 29.144C54.5738 29.6133 53.8485 30.1253 53.2085 30.68C52.6112 31.192 52.3125 31.6613 52.3125 32.088H51.8645C51.7365 32.088 51.5872 32.0027 51.4165 31.832C51.2032 31.6613 51.0325 31.4693 50.9045 31.256C50.7338 31.0427 50.5845 30.8293 50.4565 30.616C50.3285 30.4027 50.2645 30.2533 50.2645 30.168C50.2645 29.272 50.7978 28.44 51.8645 27.672C52.9312 26.8613 54.2538 26.1573 55.8325 25.56C57.4538 24.92 59.2245 24.4293 61.1445 24.088C63.0645 23.704 64.8778 23.512 66.5845 23.512C68.2485 23.512 69.6352 23.704 70.7445 24.088C71.8965 24.472 72.8138 24.9413 73.4965 25.496C74.1792 26.008 74.6698 26.5413 74.9685 27.096C75.2672 27.6507 75.4165 28.12 75.4165 28.504ZM72.2805 28.312C72.2805 27.8853 71.7472 27.4587 70.6805 27.032C69.6138 26.5627 68.3552 26.328 66.9045 26.328C65.6245 26.328 64.6858 26.3707 64.0885 26.456C63.4912 26.5413 63.0858 26.6267 62.8725 26.712C62.7872 27.3947 62.7232 28.2053 62.6805 29.144C62.6378 30.0827 62.6165 31.0427 62.6165 32.024C62.6165 33.048 62.6378 34.0507 62.6805 35.032C62.7658 35.9707 62.8512 36.76 62.9365 37.4C63.5338 37.016 64.3445 36.504 65.3685 35.864C66.4352 35.1813 67.4805 34.4347 68.5045 33.624C69.5285 32.7707 70.4032 31.896 71.1285 31C71.8965 30.0613 72.2805 29.1653 72.2805 28.312ZM94.2295 34.264C94.2295 36.184 93.9948 37.8693 93.5255 39.32C93.0988 40.7707 92.5655 41.9867 91.9255 42.968C91.2855 43.9067 90.6242 44.6107 89.9415 45.08C89.3015 45.5493 88.7682 45.784 88.3415 45.784C87.7442 45.784 87.1682 45.528 86.6135 45.016C86.0588 44.4613 85.7815 43.9493 85.7815 43.48C85.7815 42.7973 86.0588 42.456 86.6135 42.456C86.8268 42.456 87.0402 42.5413 87.2535 42.712C87.4668 42.84 87.6588 42.9467 87.8295 43.032C88.5548 42.4347 89.2375 41.4533 89.8775 40.088C90.5602 38.7227 90.9015 36.7813 90.9015 34.264C90.9015 33.24 90.7948 32.3227 90.5815 31.512C90.3682 30.7013 90.1122 30.0187 89.8135 29.464C89.5575 28.9093 89.2802 28.4827 88.9815 28.184C88.6828 27.8853 88.4695 27.736 88.3415 27.736C87.9148 27.736 87.4882 28.1627 87.0615 29.016C86.6775 29.8693 86.3362 30.8507 86.0375 31.96C85.7388 33.0267 85.4828 34.0933 85.2695 35.16C85.0988 36.184 85.0135 36.888 85.0135 37.272C85.0562 37.528 85.0988 37.7627 85.1415 37.976C85.1842 38.1893 85.2268 38.4027 85.2695 38.616C85.3122 38.8293 85.3335 39.0427 85.3335 39.256C85.3335 40.0667 85.0562 40.792 84.5015 41.432C83.9468 42.072 83.4135 42.392 82.9015 42.392C82.6455 42.392 82.4322 42.2213 82.2615 41.88C82.1335 41.496 82.0268 41.0267 81.9415 40.472C81.8562 39.9173 81.7708 39.3413 81.6855 38.744C81.6428 38.1467 81.5788 37.6133 81.4935 37.144C81.1522 36.376 80.7042 35.16 80.1495 33.496C79.5948 31.832 78.9975 30.0613 78.3575 28.184C77.7602 26.264 77.1842 24.408 76.6295 22.616C76.1175 20.824 75.7335 19.3947 75.4775 18.328C74.8802 16.024 74.4322 14.0187 74.1335 12.312C73.7922 10.5627 73.5362 9.048 73.3655 7.768C73.1522 6.44533 73.0242 5.31466 72.9815 4.376C72.9388 3.43733 72.9175 2.648 72.9175 2.008C72.9175 1.624 73.0882 1.32533 73.4295 1.112C73.7282 0.898664 74.0055 0.791996 74.2615 0.791996C74.6455 0.791996 74.9228 0.87733 75.0935 1.048C75.2642 1.176 75.3922 1.47466 75.4775 1.944C75.5202 2.41333 75.5842 3.096 75.6695 3.992C75.7122 4.888 75.8188 6.08266 75.9895 7.576C76.0748 8.30133 76.2242 9.304 76.4375 10.584C76.6935 11.864 77.0135 13.2933 77.3975 14.872C77.7815 16.4507 78.1868 18.1147 78.6135 19.864C79.0828 21.5707 79.5522 23.2133 80.0215 24.792C80.5335 26.3707 81.0242 27.8213 81.4935 29.144C82.0055 30.4667 82.4748 31.512 82.9015 32.28C83.2855 30.744 83.7548 29.3573 84.3095 28.12C84.7788 27.096 85.3548 26.1573 86.0375 25.304C86.7202 24.408 87.5522 23.96 88.5335 23.96C88.9175 23.96 89.4295 24.1307 90.0695 24.472C90.7095 24.8133 91.3282 25.3893 91.9255 26.2C92.5655 27.0107 93.0988 28.0773 93.5255 29.4C93.9948 30.7227 94.2295 32.344 94.2295 34.264ZM130.585 33.688C130.585 34.456 130.222 35.416 129.497 36.568C128.814 37.6773 127.876 38.7653 126.681 39.832C125.486 40.8987 124.1 41.816 122.521 42.584C120.942 43.3093 119.3 43.672 117.593 43.672C116.825 43.672 116.014 43.544 115.161 43.288C114.308 43.032 113.476 42.6693 112.665 42.2C111.854 41.688 111.129 41.0907 110.489 40.408C109.849 39.6827 109.38 38.872 109.081 37.976C108.825 38.232 108.505 38.6587 108.121 39.256C107.78 39.8533 107.396 40.472 106.969 41.112C106.542 41.7093 106.073 42.2427 105.561 42.712C105.049 43.1387 104.516 43.352 103.961 43.352C103.406 43.352 102.937 43.0747 102.553 42.52C102.212 41.9227 101.934 41.2827 101.721 40.6C101.508 39.8747 101.358 39.192 101.273 38.552C101.188 37.912 101.145 37.5493 101.145 37.464C101.145 36.952 101.294 35.992 101.593 34.584C101.892 33.1333 102.34 31.64 102.937 30.104C103.534 28.568 104.281 27.2027 105.177 26.008C106.116 24.8133 107.204 24.216 108.441 24.216C108.91 24.216 109.209 24.4293 109.337 24.856C109.508 25.24 109.593 25.624 109.593 26.008V27.928C109.806 28.0987 110.02 28.2267 110.233 28.312C110.489 28.3547 110.702 28.44 110.873 28.568C111.086 28.6533 111.236 28.8027 111.321 29.016C111.449 29.2293 111.513 29.5707 111.513 30.04C111.513 30.3387 111.492 30.616 111.449 30.872C111.406 31.0853 111.385 31.2987 111.385 31.512C111.385 32.6213 111.47 33.7093 111.641 34.776C111.812 35.8427 112.153 36.8027 112.665 37.656C113.177 38.4667 113.881 39.1493 114.777 39.704C115.673 40.216 116.868 40.472 118.361 40.472C120.238 40.472 121.817 40.088 123.097 39.32C124.42 38.5093 125.508 37.6347 126.361 36.696C127.257 35.7147 127.961 34.84 128.473 34.072C128.985 33.2613 129.412 32.856 129.753 32.856C130.308 32.856 130.585 33.1333 130.585 33.688ZM108.121 30.872C108.121 30.7013 108.078 30.552 107.993 30.424C107.908 30.2533 107.865 30.104 107.865 29.976C107.865 29.8053 107.908 29.656 107.993 29.528C108.078 29.4 108.121 29.2293 108.121 29.016C108.121 28.888 108.078 28.8027 107.993 28.76C107.908 28.6747 107.865 28.5893 107.865 28.504C107.481 28.5893 107.076 28.952 106.649 29.592C106.265 30.232 105.881 30.9787 105.497 31.832C105.156 32.6853 104.878 33.56 104.665 34.456C104.452 35.3093 104.345 36.0133 104.345 36.568C104.345 36.8667 104.43 37.3573 104.601 38.04C104.772 38.7227 104.964 39.1707 105.177 39.384C105.902 37.8907 106.564 36.44 107.161 35.032C107.801 33.624 108.121 32.2373 108.121 30.872ZM146.477 27.48C146.477 27.7787 146.349 28.0347 146.093 28.248C145.837 28.4187 145.538 28.568 145.197 28.696C144.855 28.824 144.514 28.9307 144.173 29.016C143.831 29.0587 143.554 29.08 143.341 29.08C142.701 29.08 142.274 29.0373 142.061 28.952C141.847 28.8667 141.677 28.824 141.549 28.824C140.482 28.824 139.629 28.9093 138.989 29.08C138.349 29.2507 137.837 29.528 137.453 29.912C137.111 30.296 136.877 30.7867 136.749 31.384C136.663 31.9387 136.621 32.6213 136.621 33.432C136.621 34.7973 136.663 35.8853 136.749 36.696C136.877 37.5067 136.983 38.168 137.069 38.68C137.197 39.192 137.303 39.5973 137.389 39.896C137.517 40.152 137.581 40.408 137.581 40.664C137.581 41.0053 137.389 41.368 137.005 41.752C136.663 42.136 136.343 42.328 136.045 42.328C135.533 42.328 135.063 41.88 134.637 40.984C134.253 40.0453 133.911 38.9573 133.613 37.72C133.357 36.44 133.143 35.1813 132.973 33.944C132.802 32.7067 132.717 31.768 132.717 31.128C132.717 30.4027 132.781 29.72 132.909 29.08C133.037 28.3973 133.207 27.8213 133.421 27.352C133.634 26.84 133.869 26.4347 134.125 26.136C134.381 25.8373 134.637 25.688 134.893 25.688C135.106 25.688 135.277 25.7733 135.405 25.944C135.533 26.072 135.639 26.2427 135.725 26.456C135.81 26.6267 135.895 26.7973 135.981 26.968C136.109 27.096 136.258 27.16 136.429 27.16C136.813 27.16 137.431 26.968 138.285 26.584C139.138 26.2 140.183 26.008 141.421 26.008C142.573 26.008 143.426 26.0507 143.981 26.136C144.578 26.1787 145.154 26.3067 145.708 26.52C145.837 26.5627 145.986 26.6693 146.157 26.84C146.37 26.968 146.477 27.1813 146.477 27.48Z" fill="#F07605"/>
</svg>
