<svg width="29" height="30" viewBox="0 0 29 30" fill="none" xmlns="http://www.w3.org/2000/svg">
<path fill-rule="evenodd" clip-rule="evenodd" d="M11.2859 3.39076e-07C10.7535 -0.000260489 10.2319 0.149962 9.78184 0.4332C9.33178 0.716438 8.97173 1.12105 8.74354 1.6C7.64432 1.6096 6.78937 1.6592 6.02441 1.9568C5.11124 2.31244 4.31707 2.91682 3.73276 3.7008C3.14297 4.4896 2.86495 5.504 2.48569 6.8976L2.41016 7.1696L1.58574 11.912C1.28843 12.1168 1.0297 12.36 0.804711 12.6464C-0.643242 14.4912 0.0461832 17.2384 1.42503 22.728C2.30088 26.2208 2.7396 27.9664 4.04774 28.984C5.35588 30 7.16381 30 10.7797 30H18.2203C21.8362 30 23.6441 30 24.9523 28.984C26.2604 27.9664 26.6975 26.2208 27.575 22.728C28.9538 17.2368 29.6432 14.4928 28.1953 12.6464C27.9739 12.3625 27.71 12.1142 27.4127 11.9104L26.5882 7.1712L26.5143 6.8992C26.1334 5.504 25.8554 4.4896 25.2672 3.6992C24.6827 2.91581 23.8886 2.312 22.9756 1.9568C22.2106 1.6592 21.3541 1.6096 20.2565 1.6016C20.0285 1.12236 19.6685 0.717408 19.2185 0.433876C18.7684 0.150344 18.2467 -0.000116985 17.7141 3.39076e-07H11.2859ZM24.8141 11.0336L24.2323 7.6928C23.7775 6.0288 23.612 5.5056 23.3324 5.1312C23.0177 4.70897 22.59 4.38349 22.0981 4.192C21.7446 4.0544 21.3171 4.0144 20.2532 4.0032C20.0248 4.48106 19.6651 4.88468 19.2157 5.1673C18.7663 5.44991 18.2456 5.59994 17.7141 5.6H11.2859C10.7544 5.59994 10.2337 5.44991 9.78432 5.1673C9.33492 4.88468 8.97517 4.48106 8.74676 4.0032C7.68128 4.0144 7.25541 4.0544 6.90186 4.192C6.41005 4.38349 5.98233 4.70897 5.66765 5.1312C5.38802 5.5056 5.22249 6.0272 4.7677 7.6912L4.18595 11.0336C5.78978 10.8 7.92716 10.8 10.7797 10.8H18.2203C21.0728 10.8 23.2102 10.8 24.8141 11.0336ZM8.0718 16C8.39146 16 8.69803 16.1264 8.92406 16.3515C9.1501 16.5765 9.27708 16.8817 9.27708 17.2V23.6C9.27708 23.9183 9.1501 24.2235 8.92406 24.4485C8.69803 24.6736 8.39146 24.8 8.0718 24.8C7.75213 24.8 7.44556 24.6736 7.21953 24.4485C6.99349 24.2235 6.86651 23.9183 6.86651 23.6V17.2C6.86651 16.8817 6.99349 16.5765 7.21953 16.3515C7.44556 16.1264 7.75213 16 8.0718 16ZM22.1335 17.2C22.1335 16.8817 22.0065 16.5765 21.7805 16.3515C21.5544 16.1264 21.2479 16 20.9282 16C20.6085 16 20.302 16.1264 20.0759 16.3515C19.8499 16.5765 19.7229 16.8817 19.7229 17.2V23.6C19.7229 23.9183 19.8499 24.2235 20.0759 24.4485C20.302 24.6736 20.6085 24.8 20.9282 24.8C21.2479 24.8 21.5544 24.6736 21.7805 24.4485C22.0065 24.2235 22.1335 23.9183 22.1335 23.6V17.2ZM14.5 16C14.8197 16 15.1262 16.1264 15.3523 16.3515C15.5783 16.5765 15.7053 16.8817 15.7053 17.2V23.6C15.7053 23.9183 15.5783 24.2235 15.3523 24.4485C15.1262 24.6736 14.8197 24.8 14.5 24.8C14.1803 24.8 13.8738 24.6736 13.6477 24.4485C13.4217 24.2235 13.2947 23.9183 13.2947 23.6V17.2C13.2947 16.8817 13.4217 16.5765 13.6477 16.3515C13.8738 16.1264 14.1803 16 14.5 16Z" fill="#FB8B24"/>
</svg>
