<svg width="40" height="40" viewBox="0 0 40 40" fill="none" xmlns="http://www.w3.org/2000/svg">
<path fill-rule="evenodd" clip-rule="evenodd" d="M21.4386 0.585579C21.0635 0.210633 20.5549 0 20.0246 0C19.4942 0 18.9856 0.210633 18.6106 0.585579L0.610576 18.5858C0.419556 18.7703 0.267192 18.991 0.162374 19.235C0.0575557 19.479 0.00238315 19.7414 7.55134e-05 20.007C-0.00223212 20.2725 0.0483713 20.5359 0.148933 20.7817C0.249495 21.0275 0.398001 21.2508 0.585786 21.4386C0.773572 21.6264 0.996875 21.7749 1.24267 21.8755C1.48846 21.976 1.75182 22.0266 2.01738 22.0243C2.28294 22.022 2.54538 21.9668 2.78939 21.862C3.03339 21.7572 3.25408 21.6048 3.43858 21.4138L4.02458 20.8278V33.9999C4.02458 35.5913 4.65672 37.1174 5.78194 38.2426C6.90715 39.3679 8.43328 40 10.0246 40H30.0246C31.6159 40 33.142 39.3679 34.2672 38.2426C35.3924 37.1174 36.0246 35.5913 36.0246 33.9999V20.8278L36.6106 21.4138C36.9878 21.7781 37.493 21.9797 38.0174 21.9752C38.5418 21.9706 39.0434 21.7603 39.4142 21.3894C39.785 21.0186 39.9954 20.517 39.9999 19.9926C40.0045 19.4682 39.8029 18.963 39.4386 18.5858L21.4386 0.585579Z" fill="#FB8B24"/>
</svg>
