<svg width="40" height="40" viewBox="0 0 40 40" fill="none" xmlns="http://www.w3.org/2000/svg">
<path fill-rule="evenodd" clip-rule="evenodd" d="M29.4252 40.0025C26.5403 39.8963 18.3645 38.7664 9.80205 30.206C1.24158 21.6435 0.113676 13.4697 0.00549329 10.5828C-0.154778 6.18334 3.21492 1.91012 7.1075 0.241296C7.57624 0.038888 8.08956 -0.0381754 8.59708 0.0176691C9.10459 0.0735136 9.58887 0.260347 10.0024 0.559835C13.2078 2.89578 15.4195 6.42976 17.3188 9.20846C17.7366 9.81895 17.9153 10.5618 17.8207 11.2956C17.7261 12.0293 17.3649 12.7026 16.8059 13.1872L12.8973 16.0901C12.7085 16.2264 12.5755 16.4267 12.5232 16.6537C12.4709 16.8807 12.5027 17.1189 12.6128 17.3242C13.4983 18.9329 15.073 21.3289 16.876 23.132C18.6811 24.935 21.1893 26.6139 22.9102 27.5995C23.126 27.7207 23.38 27.7545 23.6199 27.6942C23.8599 27.6338 24.0676 27.4838 24.2004 27.275L26.7447 23.4025C27.2125 22.7811 27.9025 22.3648 28.6703 22.2409C29.4381 22.1169 30.2241 22.2948 30.8637 22.7373C33.6824 24.6886 36.972 26.8623 39.3801 29.9455C39.7039 30.362 39.9098 30.8579 39.9764 31.3812C40.043 31.9046 39.9678 32.4362 39.7587 32.9205C38.0819 36.8332 33.8387 40.1648 29.4252 40.0025Z" fill="#FB8B24"/>
</svg>
